<svg width="95" height="95" viewBox="0 0 95 95" fill="none" xmlns="http://www.w3.org/2000/svg">
<path d="M77.6243 50.5594C76.6242 51.1892 75.1517 51.7627 74.9687 51.8251C72.8699 52.5438 72.0413 52.9414 71.6182 52.455C71.0051 51.7504 72.7477 49.3288 72.8594 49.1308C73.5006 47.9979 73.5684 47.8571 74.3688 46.5439C75.0505 45.4258 75.6425 44.5489 75.9328 44.08C77.0667 42.2469 77.1238 42.2134 77.9656 40.6116C78.321 39.9361 79.0493 38.753 80.3081 36.9761C81.5748 35.1878 82.0058 34.4771 82.8124 33.7707C83.8943 32.8234 84.7863 31.971 86.2333 31.635C86.7435 31.5163 87.5175 31.3219 88.4112 31.555C90.0702 31.9877 90.9191 33.7021 91.3501 34.5897C94.6892 41.4719 92.3581 49.3112 92.3581 49.3112C90.5065 55.5372 86.5412 59.163 83.6243 61.8292C80.7453 64.461 76.0832 68.1827 69.8176 69.16C65.2005 69.8804 64.4624 69.3764 64.2654 69.0835C63.7887 68.3736 64.1405 67.1738 64.6296 66.4437C65.3562 65.3574 66.5445 65.0697 67.7294 64.7152C67.7294 64.7152 69.0805 64.3115 73.5112 62.4476C77.3042 60.8519 79.7108 58.2051 80.5808 57.1592C82.7728 54.5239 83.6137 51.9395 84.1644 50.1996C85.4328 46.1964 85.6835 41.8106 84.9261 41.5995C83.9392 41.3232 81.4411 48.1562 77.6243 50.5594Z" fill="#E4508F"/>
<path d="M22.9132 54.2802C22.1452 54.8036 23.9898 58.1057 25.881 60.3452C25.881 60.3452 28.2279 63.124 32.2619 65.4717C33.3069 66.0795 34.4055 66.5792 34.4055 66.5792C34.935 66.8202 35.505 67.077 36.3002 67.3383C36.8219 67.5098 37.53 67.7385 38.4474 67.8801C39.1414 67.9875 40.182 68.0789 41.4654 67.9347C41.4909 64.9536 41.5164 61.9717 41.5411 58.9906C41.7355 58.1365 42.2377 56.7546 43.6311 55.7676C46.5259 53.7163 51.7184 54.4684 53.5119 56.9085C54.074 57.6729 54.2104 58.4787 54.2332 59.0513C54.2755 62.1951 54.3177 65.3389 54.3599 68.4836C58.5769 67.8784 65.2374 66.244 69.64 61.4369C72.3439 58.4839 74.4929 54.0119 73.681 53.5228C73.3027 53.295 72.4108 54.0101 71.2813 54.7156C65.8681 58.0969 58.0192 59.368 56.3795 57.5348C56.0242 57.1372 55.7585 56.3676 56.5062 54.7156L67.9977 36.1968L48.2966 25.3333L28.5964 36.195C32.407 42.5574 36.2175 48.9189 40.0281 55.2812C40.0923 55.5521 40.2753 56.4265 39.9604 57.1733C39.8557 57.4222 39.6956 57.6571 39.4572 57.8515C38.8661 58.3318 38.0604 58.3441 36.8069 58.3027C33.8672 58.2051 32.3973 58.1558 31.1227 57.8515C25.9285 56.6112 23.667 53.7665 22.9132 54.2802Z" fill="#E4508F"/>
<path d="M18.5238 50.5594C19.5239 51.1892 20.9964 51.7627 21.1794 51.8251C23.2782 52.5438 24.1068 52.9414 24.5299 52.455C25.143 51.7504 23.4005 49.3288 23.2887 49.1308C22.6475 47.9979 22.5798 47.8571 21.7793 46.5439C21.0976 45.4258 20.5056 44.5489 20.2153 44.08C19.0815 42.2469 19.0243 42.2134 18.1825 40.6116C17.8271 39.9361 17.0988 38.753 15.84 36.9761C14.5734 35.1878 14.1424 34.4771 13.3357 33.7707C12.2538 32.8234 11.3618 31.971 9.91485 31.635C9.40467 31.5163 8.63059 31.3219 7.73689 31.555C6.07791 31.9877 5.22906 33.7021 4.79805 34.5897C1.46073 41.471 3.79175 49.3112 3.79175 49.3112C5.64337 55.5372 9.60874 59.163 12.5256 61.8292C15.4046 64.461 20.0667 68.1827 26.3323 69.16C30.9494 69.8804 31.6874 69.3764 31.8845 69.0835C32.3612 68.3736 32.0094 67.1738 31.5203 66.4437C30.7937 65.3574 29.6054 65.0697 28.4205 64.7152C28.4205 64.7152 27.0694 64.3115 22.6387 62.4476C18.8457 60.8519 16.4391 58.2051 15.5691 57.1592C13.3771 54.5239 12.5361 51.9395 11.9855 50.1996C10.7171 46.1964 10.4664 41.8106 11.2237 41.5995C12.2089 41.3232 14.7071 48.1562 18.5238 50.5594Z" fill="#E4508F"/>
<path d="M46.5444 38.6949H43.7137C43.281 38.6949 42.93 38.3439 42.93 37.9111V35.0805C42.93 34.6477 43.281 34.2968 43.7137 34.2968H46.5444C46.9772 34.2968 47.3281 34.6477 47.3281 35.0805V37.9111C47.3281 38.3439 46.9772 38.6949 46.5444 38.6949Z" fill="white"/>
<path d="M52.4344 38.6949H49.6038C49.171 38.6949 48.82 38.3439 48.82 37.9111V35.0805C48.82 34.6477 49.171 34.2968 49.6038 34.2968H52.4344C52.8672 34.2968 53.2182 34.6477 53.2182 35.0805V37.9111C53.2182 38.3439 52.8672 38.6949 52.4344 38.6949Z" fill="white"/>
<path d="M46.5444 44.4521H43.7137C43.281 44.4521 42.93 44.1011 42.93 43.6684V40.8377C42.93 40.4049 43.281 40.054 43.7137 40.054H46.5444C46.9772 40.054 47.3281 40.4049 47.3281 40.8377V43.6684C47.3281 44.1011 46.9772 44.4521 46.5444 44.4521Z" fill="white"/>
<path d="M52.4344 44.4521H49.6038C49.171 44.4521 48.82 44.1011 48.82 43.6684V40.8377C48.82 40.4049 49.171 40.054 49.6038 40.054H52.4344C52.8672 40.054 53.2182 40.4049 53.2182 40.8377V43.6684C53.2182 44.1011 52.8672 44.4521 52.4344 44.4521Z" fill="white"/>
</svg>
